<?xml version="1.0" encoding="utf-8"?>
<!-- Generator: Adobe Illustrator 27.1.1, SVG Export Plug-In . SVG Version: 6.00 Build 0)  -->
<svg version="1.1" id="Layer_1" xmlns="http://www.w3.org/2000/svg" xmlns:xlink="http://www.w3.org/1999/xlink" x="0px" y="0px"
	 viewBox="0 0 311.5 55.4" style="enable-background:new 0 0 311.5 55.4;" xml:space="preserve">
<style type="text/css">
	.st0{fill:#FF4D00;}
	.st1{fill:#5B6670;}
	.st2{fill-rule:evenodd;clip-rule:evenodd;fill:#5B6670;}
</style>
<g id="LG" transform="translate(0 0.01)">
	<g id="Group_5">
		<path id="Path_19" class="st0" d="M89.8,41.9V13.4h5V37H114v5L89.8,41.9L89.8,41.9z"/>
		<path id="Path_20" class="st0" d="M151.2,17.8c-0.4-0.8-1.2-1.4-2.1-1.4c-0.9,0-1.8,0.6-2.1,1.4l-11.9,19.8h-15.3V31h14v-3.7h-14
			v-6.1h17.1v-4.4h-21.5v25.3h22.1l11.5-19.4l5.6,9.5h-7.8l-2.1,3.6h11.9l3.8,6.4h5.3L151.2,17.8L151.2,17.8z"/>
		<path id="Path_21" class="st0" d="M165.3,41.9V16.7h14.6c7.1,0,12.3,5,12.3,12.4s-5.2,12.9-12.3,12.9L165.3,41.9L165.3,41.9z
			 M179.9,37.5c4.6,0,7.9-3.5,7.9-8.3s-3.3-8.2-7.9-8.2h-10.3v16.4H179.9z"/>
		<path id="Path_22" class="st1" d="M211.5,41.9c-8,0-13.8-6.3-13.8-14.5s5.9-13.9,13.8-13.9H227v5h-15.4c-5.1,0-8.9,3.8-8.9,9.2
			s3.7,9.3,8.9,9.3h12.2v-7.4h-12.9v-4.2h17.9V42L211.5,41.9L211.5,41.9z"/>
		<path id="Path_23" class="st1" d="M267.3,17.8c-0.4-0.8-1.2-1.4-2.1-1.4c-0.9,0-1.8,0.6-2.1,1.4l-11.9,19.8h-15.3V31h14v-3.7h-14
			v-6.1h17.1v-4.4h-21.5v25.3h22.1L265,22.5l5.6,9.5h-7.8l-2.1,3.6h12l3.8,6.4h5.3L267.3,17.8L267.3,17.8z"/>
		<path id="Path_24" class="st1" d="M305.2,41.9l-6.4-7h-9.4V31h10.5c3.2,0,4.8-1.8,4.8-5.1s-1.8-4.9-4.8-4.9h-13.8V42h-4.4V16.7
			h18.1c5.8,0,9.2,3.6,9.2,9.2c0,4.2-2,7.1-5.2,8.4l7.6,7.7C311.5,41.9,305.2,41.9,305.2,41.9z"/>
	</g>
	<g id="Group_6">
		<path id="Path_25" class="st0" d="M56.4,26.9l2.5-3.4l3.3-4.5l-5,2.4l-3.8,1.8c-2.4-0.8-4.9,0.5-5.7,2.8c-0.8,2.4,0.5,4.9,2.8,5.7
			s4.9-0.5,5.7-2.8C56.5,28.4,56.5,27.6,56.4,26.9L56.4,26.9z M50.9,28.5c-0.5-0.6-0.4-1.4,0.2-1.9c0.6-0.5,1.4-0.4,1.9,0.2
			c0.5,0.6,0.4,1.4-0.2,1.9C52.2,29.1,51.4,29,50.9,28.5z"/>
		<path id="Path_26" class="st2" d="M61.6,50l0.6,2.3c0.2,0.8-0.3,1.6-1,1.8l-4.5,1.2c-0.8,0.2-1.6-0.3-1.8-1L54.2,52
			c-1.7,0.2-3.4,0.2-5,0l-0.6,2.3c-0.2,0.8-1,1.3-1.8,1l-4.5-1.2c-0.8-0.2-1.3-1-1-1.8l0.6-2.3c-1.5-0.7-3-1.5-4.4-2.5l-1.7,1.7
			c-0.6,0.6-1.5,0.6-2.1,0l-3.3-3.3c-0.6-0.6-0.6-1.5,0-2.1l1.6-1.6H14.7c-1.1,0-2.1-0.9-2.1-2.1l0,0c0-1.1,0.9-2.1,2.1-2.1h26.1
			c1,1,2.1,1.9,3.2,2.6l0,0c4.2,2.5,9.4,2.8,13.8,0.8l-0.1,0c7.6-3.4,10.9-12.3,7.5-19.8c-0.4-0.9-0.9-1.8-1.5-2.6l0,0
			c-4.6-6.4-13.3-8.1-20-4.1l0,0c-1.1,0.7-2.2,1.5-3.1,2.5H12.1c-1.1,0-2.1-0.9-2.1-2.1l0,0c0-1.1,0.9-2.1,2.1-2.1h19.7l-1.6-1.6
			c-0.6-0.6-0.6-1.5,0-2.1l3.3-3.3c0.6-0.6,1.5-0.6,2.1,0l1.7,1.7c1.4-1,2.8-1.8,4.4-2.5l-0.6-2.3c-0.2-0.8,0.3-1.6,1-1.8l4.5-1.2
			c0.8-0.2,1.6,0.3,1.8,1.1l0.6,2.3c1.7-0.2,3.4-0.2,5,0l0.6-2.3c0.2-0.8,1-1.3,1.8-1l4.5,1.2c0.8,0.2,1.3,1,1,1.8l-0.6,2.3
			c1.5,0.7,3,1.5,4.4,2.5l1.7-1.7c0.6-0.6,1.5-0.6,2.1,0l3.3,3.3c0.6,0.6,0.6,1.5,0,2.1l-1.7,1.7c0.5,0.7,0.9,1.3,1.3,2l0,0
			c0.4,0.8,0.8,1.5,1.2,2.3l2.3-0.6c0.7-0.2,1.4,0.2,1.7,0.8c0.2,0.3,1.1,4.1,1.3,4.8c0.2,0.8-0.3,1.6-1.1,1.8l-2.3,0.6
			c0.2,1.7,0.2,3.3,0,5l2.3,0.6c0.8,0.2,1.3,1.1,1.1,1.9L78,37.2c-0.2,0.8-1,1.3-1.8,1l-2.3-0.6c-0.7,1.5-1.5,3-2.5,4.4l1.7,1.7
			c0.6,0.6,0.6,1.5,0,2.2l-3.3,3.3c-0.6,0.6-1.5,0.6-2.1,0l-1.7-1.7C64.6,48.5,63.1,49.3,61.6,50L61.6,50L61.6,50z M37.8,33.9
			c0.1,0,0.1,0,0.2,0c-0.3-0.7-0.6-1.5-0.8-2.3c-0.2-0.6-0.3-1.2-0.4-1.8H20.2c-1.1,0-2.1,0.9-2.1,2.1l0,0c0,1.1,0.9,2.1,2.1,2.1
			H37.8z M36.8,25.6c0.2-1.4,0.6-2.8,1.2-4.1h-36c-1.1,0-2.1,0.9-2.1,2.1l0,0c0,1.1,0.9,2.1,2.1,2.1L36.8,25.6L36.8,25.6z
			 M16.1,31.8L16.1,31.8c0-1.1-0.9-2.1-2.1-2.1h-1.9c-1.1,0-2.1,0.9-2.1,2.1l0,0c0,1.1,0.9,2.1,2.1,2.1H14
			C15.2,33.9,16.1,33,16.1,31.8z"/>
	</g>
</g>
</svg>
